<?xml version="1.0" encoding="UTF-8" standalone="no"?>
<!-- Created with Inkscape (http://www.inkscape.org/) -->

<svg
   xmlns:dc="http://purl.org/dc/elements/1.1/"
   xmlns:cc="http://creativecommons.org/ns#"
   xmlns:rdf="http://www.w3.org/1999/02/22-rdf-syntax-ns#"
   xmlns:svg="http://www.w3.org/2000/svg"
   xmlns="http://www.w3.org/2000/svg"
   xmlns:sodipodi="http://sodipodi.sourceforge.net/DTD/sodipodi-0.dtd"
   xmlns:inkscape="http://www.inkscape.org/namespaces/inkscape"
   width="684.89801"
   height="334.43719"
   id="svg2"
   version="1.1"
   inkscape:version="0.48.4 r9939"
   sodipodi:docname="labestDataLogo.svg">
  <defs
     id="defs4">
    <style
       id="style3059"
       type="text/css">
    .fil0 {fill:#FEFEFE}
    .fil1 {fill:#005BAB}
   </style>
  </defs>
  <sodipodi:namedview
     id="base"
     pagecolor="#ffffff"
     bordercolor="#666666"
     borderopacity="1.0"
     inkscape:pageopacity="0.0"
     inkscape:pageshadow="2"
     inkscape:zoom="0.35"
     inkscape:cx="-240.57742"
     inkscape:cy="204.551"
     inkscape:document-units="px"
     inkscape:current-layer="layer1"
     showgrid="false"
     fit-margin-top="10"
     fit-margin-left="10"
     fit-margin-right="10"
     fit-margin-bottom="10"
     inkscape:window-width="1366"
     inkscape:window-height="744"
     inkscape:window-x="0"
     inkscape:window-y="24"
     inkscape:window-maximized="1" />
  <metadata
     id="metadata7">
    <rdf:RDF>
      <cc:Work
         rdf:about="">
        <dc:format>image/svg+xml</dc:format>
        <dc:type
           rdf:resource="http://purl.org/dc/dcmitype/StillImage" />
        <dc:title />
      </cc:Work>
    </rdf:RDF>
  </metadata>
  <g
     inkscape:label="Layer 1"
     inkscape:groupmode="layer"
     id="layer1"
     transform="translate(-196.81778,-417.76983)">
    <g
       id="g3381"
       transform="matrix(1.0619262,0,0,1.0280235,629.69777,-71.914819)">
      <path
         style="fill:#bdb7cf"
         d="m 45.58406,790.59203 c -15.8872,-2.68254 -33.80728,-8.80073 -49,-16.72934 -7.84748,-4.09535 -27.34722,-16.91115 -32.5,-21.35993 -1.65,-1.42458 -5.3625,-4.62702 -8.25,-7.11654 -2.8875,-2.48953 -5.25,-4.91063 -5.25,-5.38023 0,-0.4696 1.9125,-0.17882 4.25,0.64618 5.10735,1.80259 27.53109,6.42841 30.87564,6.36936 2.24937,-0.0397 2.214,-0.13183 -0.67197,-1.75 -10.18635,-5.71151 -31.30603,-24.62717 -24.95367,-22.34953 2.86831,1.02843 14.72901,4.0998 19.81395,5.13089 4.96405,1.00657 24.68605,2.90779 24.68605,2.37975 0,-0.0985 -2.1375,-1.42045 -4.75,-2.9376 -2.6125,-1.51715 -4.975,-3.02355 -5.25,-3.34755 -0.275,-0.324 -3.2,-2.59792 -6.5,-5.05316 -7.51576,-5.5918 -14.4439,-11.75364 -13.86559,-12.33195 0.24173,-0.24174 2.14197,0.14701 4.22274,0.8639 15.89578,5.47654 40.47253,6.54607 57.09603,2.48469 23.27832,-5.68725 45.03799,-19.23626 65.78879,-40.96445 3.98308,-4.17069 8.25808,-9.0425 9.5,-10.82624 1.24192,-1.78374 2.74802,-3.24624 3.34689,-3.25 0.59887,-0.004 1.67937,3.78913 2.4011,8.42864 0.72173,4.63951 1.63908,8.9643 2.03855,9.61066 0.73608,1.191 4.56279,-2.50698 12.46544,-12.04613 2.0504,-2.475 4.06466,-4.62886 4.47612,-4.78636 0.41146,-0.1575 1.03903,1.8675 1.39459,4.5 0.35556,2.6325 1.36669,8.72913 2.24695,13.54807 l 1.60047,8.76171 5.64396,-6.2512 c 3.10418,-3.43816 7.71653,-8.46748 10.24968,-11.17627 l 4.60572,-4.92506 1.12714,6.41455 c 0.61993,3.52801 2.47275,14.73956 4.11739,24.91456 1.64463,10.175 4.58885,28.31184 6.54271,40.3041 1.95387,11.99225 3.30421,22.20581 3.00077,22.69679 -0.5251,0.84963 -9.24391,6.99911 -9.92343,6.99911 -0.17805,0 -5.08907,2.7 -10.91338,6 -5.82431,3.3 -10.85576,6 -11.18101,6 -0.32525,0 -2.70417,0.96358 -5.28649,2.14128 -15.41267,7.02915 -35.67376,12.89356 -51.16891,14.81044 -11.15653,1.38016 -32.62658,1.16399 -42.02623,-0.42314 z m -66.68122,-95.33413 -45.18122,-15.54743 -0.704,-7.5128 c -1.01828,-10.8665 0.16615,-43.13174 1.96886,-53.63422 6.90381,-40.22119 24.12315,-71.42333 53.09758,-96.21496 8.26357,-7.07063 23.82026,-17.24452 35.35771,-23.12353 10.01385,-5.10264 30.9291,-13.70803 31.62523,-13.01191 0.21917,0.21917 -1.93733,2.81914 -4.79223,5.77771 -5.72664,5.93461 -18.69071,22.11441 -18.69071,23.32693 0,0.42244 3.65109,-1.06765 8.11353,-3.31132 4.46244,-2.24367 11.54994,-5.42933 15.75,-7.07924 4.20006,-1.64991 8.26037,-3.26591 9.02292,-3.59111 2.27606,-0.97066 0.89419,1.28232 -3.92785,6.40391 -2.49777,2.65294 -6.92297,7.70468 -9.83378,11.22611 -4.98233,6.02749 -6.36376,8.0225 -12.04263,17.39141 l -2.29969,3.794 3.35875,-1.88065 c 10.73998,-6.01359 15.19518,-8.21118 22.64742,-11.17114 4.55878,-1.81071 8.45304,-3.1221 8.65393,-2.9142 0.20089,0.20789 -2.55948,3.50525 -6.13414,7.32745 -26.35195,28.17678 -34.31088,65.21735 -23.37327,108.77833 1.55667,6.19971 4.43305,15.53473 6.39196,20.74448 1.9589,5.20975 3.36895,9.66497 3.13343,9.90048 -0.35514,0.35514 -12.87204,-3.00583 -17.21058,-4.62129 -1.94975,-0.72599 -1.5495,0.96953 2.89453,12.26169 2.27949,5.79212 3.90902,10.76663 3.62118,11.05447 -0.28784,0.28784 -5.8029,-1.29712 -12.25568,-3.52214 -6.45279,-2.22501 -11.90732,-4.04548 -12.12119,-4.04548 -0.91481,0 -0.13502,2.73227 4.16668,14.59947 2.50554,6.91208 4.41804,12.92179 4.25,13.35491 -0.16804,0.43313 -20.63707,-6.20884 -45.48674,-14.75993 z m 239.2853,11.79142 c -3.48007,-15.66003 -5.04337,-21.60971 -7.3534,-27.98587 l -2.71718,-7.5 -0.7745,5.5 c -1.88184,13.3636 -5.83116,31 -6.94184,31 -0.44944,0 -0.81716,-0.86447 -0.81716,-1.92104 0,-5.7708 -6.16947,-26.17456 -11.32996,-37.47058 l -2.33371,-5.10838 -1.25778,10 c -1.55507,12.36361 -4.98602,27.67522 -6.05349,27.01549 -0.43685,-0.26999 -1.1149,-2.63393 -1.50676,-5.25319 -2.83919,-18.97765 -15.26318,-42.47229 -29.94091,-56.62039 -16.0865,-15.50603 -45.64868,-30.14748 -72.07739,-35.69823 -3.3,-0.69309 -6.33948,-1.55094 -6.75441,-1.90634 -0.41493,-0.35539 2.84757,-3.29573 7.25,-6.5341 4.40243,-3.23836 8.00441,-6.17653 8.00441,-6.52926 0,-0.35274 -5.48273,-1.9628 -12.18384,-3.57793 l -12.18384,-2.93659 10.79477,-8.21855 c 6.4269,-4.89309 10.2441,-8.41335 9.43384,-8.69999 -5.61277,-1.98557 -27.85964,-7.22435 -28.44676,-6.69875 -0.40415,0.36181 -0.43173,0.12869 -0.0613,-0.51804 1.16515,-2.03417 76.72722,-57.83046 78.13877,-57.69897 2.97686,0.2773 28.66094,17.67962 39.10314,26.49444 33.34456,28.14791 52.79921,61.43667 58.53579,100.16032 1.59187,10.74563 1.58567,35.71876 -0.0118,47.72008 -1.39187,10.45637 -5.84276,31.64343 -7.13961,33.98587 -0.64233,1.16019 -0.94371,0.94102 -1.37505,-1 z"
         id="path3376"
         inkscape:connector-curvature="0" />
      <path
         style="fill:#7d6fa0"
         d="m 45.08406,768.45718 c -19.19494,-2.82907 -46.25513,-13.16936 -57.67556,-22.03909 -2.02156,-1.57005 -6.50322,-4.87964 -9.95924,-7.35464 -3.45602,-2.475 -8.55202,-6.62453 -11.32444,-9.22117 -2.77242,-2.59664 -5.37826,-4.73414 -5.79076,-4.75 -0.4125,-0.0159 -0.75,-0.43479 -0.75,-0.93096 0,-0.49617 2.1375,-0.22458 4.75,0.60355 9.40732,2.98199 22.00257,5.20652 33.25,5.8725 l 8.5,0.50329 -3.82212,-2.2886 c -7.49527,-4.48802 -28.16451,-20.63531 -27.3968,-21.40302 0.19863,-0.19863 4.82914,0.79667 10.29003,2.21179 13.49004,3.49575 32.32594,4.32294 44.80129,1.96746 28.04009,-5.29426 54.17371,-22.07288 79.40259,-50.97899 5.75434,-6.59307 5.54358,-6.72166 7.23464,4.41415 1.77865,11.71254 1.46305,11.45148 6.83266,5.65183 2.62341,-2.83351 6.26135,-7.08508 8.08432,-9.44794 1.82297,-2.36287 3.53968,-4.07093 3.81491,-3.7957 0.60619,0.60619 7.0454,36.23541 13.93721,77.11696 0.47783,2.83446 0.047,3.32822 -6.83438,7.83308 -16.07037,10.52033 -36.98408,19.42308 -55.84435,23.77236 -8.26836,1.90672 -34.2901,3.32578 -41.5,2.26314 z m -66,-73.45389 c -23.65,-8.19278 -43.51719,-14.90584 -44.14931,-14.9179 -1.62819,-0.0311 -2.77811,-22.48488 -1.94609,-38.00017 2.50405,-46.69505 16.90215,-81.4906 45.53728,-110.04887 19.04686,-18.99574 40.17959,-32.1007 70.84514,-43.93292 2.90786,-1.12199 5.57141,-2.03998 5.919,-2.03998 0.34759,0 -2.49229,3.2625 -6.31085,7.25 -6.53258,6.8216 -18.39517,21.65476 -18.39517,23.0016 0,0.33745 3.98975,-1.36894 8.86612,-3.792 7.33264,-3.64356 23.59446,-10.4596 24.9547,-10.4596 0.20155,0 -2.61498,3.22022 -6.25896,7.15605 -6.88139,7.43254 -12.54488,15.08161 -18.76932,25.34974 -2.00236,3.30319 -5.13733,7.09843 -6.9666,8.43387 -11.52177,8.41136 -23.4452,21.55824 -30.13955,33.23211 -3.51832,6.13541 -8.4695,19.66641 -10.19136,27.85185 -2.04968,9.74386 -3.39031,28.28885 -2.78222,38.48673 l 0.53727,9.01035 20.71207,6.80083 20.71207,6.80083 4.04374,10.68882 c 2.22406,5.87885 4.36161,11.45316 4.75013,12.38736 0.57081,1.37253 -1.75758,0.86648 -12.13085,-2.63646 -7.06048,-2.38425 -12.97161,-4.21423 -13.13585,-4.06661 -0.23623,0.21235 5.92032,17.84664 9.34065,26.75453 0.44151,1.14987 0.20659,1.72185 -0.68505,1.66791 -0.74635,-0.0452 -20.70699,-6.78528 -44.35699,-14.97807 z m 238.94412,10.31016 c -1.19103,-6.90846 -4.58653,-19.6839 -7.10972,-26.75 -2.17462,-6.08994 -2.54232,-9.01513 -2.82826,-22.5 -0.50488,-23.80953 -3.99061,-39.05196 -13.10947,-57.32516 -3.88552,-7.78616 -9.64054,-17.24128 -11.36674,-18.67484 -0.33114,-0.275 -3.41718,-3.97518 -6.85786,-8.22262 -3.44068,-4.24743 -7.14993,-8.3489 -8.24278,-9.11435 -1.09285,-0.76546 -4.09144,-3.36529 -6.66355,-5.77739 -8.00904,-7.51082 -33.22664,-24.88564 -36.11871,-24.88564 -0.48089,0 -10.6891,7.44306 -22.6849,16.54014 -14.71902,11.16223 -22.32291,16.33557 -23.38634,15.91097 -4.56765,-1.82372 -27.55749,-7.281 -28.48888,-6.76263 -3.78033,2.10397 5.25763,-4.86425 38.97357,-30.04841 37.78787,-28.22569 37.95082,-28.33331 40.7661,-26.92424 4.42349,2.214 22.53915,14.08374 29.17342,19.11501 18.40521,13.95806 37.88693,35.36814 47.47039,52.16916 9.80787,17.19445 16.37307,36.34847 18.96219,55.32236 1.53778,11.2693 1.31281,34.68516 -0.46477,48.37642 -1.40294,10.80568 -6.13813,33.30122 -7.00973,33.30122 -0.2021,0 -0.65838,-1.6875 -1.01396,-3.75 z m -40.79821,-12.25 c -2.58933,-11.50532 -7.90317,-25.17279 -13.28029,-34.15758 -4.63284,-7.74115 -20.42144,-25.19998 -26.36562,-29.15477 -1.375,-0.91481 -4.3,-2.93205 -6.5,-4.48274 -6.51778,-4.59414 -18.5349,-10.81729 -25.5,-13.20536 -3.575,-1.22574 -7.85,-2.83009 -9.5,-3.56523 -3.54339,-1.57871 -22.14214,-6.43432 -24.64581,-6.43432 -3.83167,0 -2.40035,-2.01397 5.9252,-8.33713 4.79633,-3.64277 14.57061,-11.13964 21.72061,-16.65971 7.15,-5.52007 14.7182,-11.2341 16.81821,-12.69785 l 3.81821,-2.66136 5.42866,2.92802 c 11.6451,6.28096 28.02292,19.75915 36.5806,30.10413 21.20714,25.63636 27.9339,56.27467 20.34251,92.65381 -2.94523,14.11398 -2.94262,14.11094 -4.84228,5.67009 z"
         id="path3374"
         inkscape:connector-curvature="0" />
      <path
         style="fill:#280e6d"
         d="M 43.98799,743.05888 C 32.28213,741.79854 18.4824,737.35635 7.58406,731.34029 c -5.73097,-3.16359 -14.59117,-8.85767 -16,-10.28253 -0.275,-0.27813 -2.075,-1.68101 -4,-3.11751 -5.85591,-4.36989 -11.57071,-9.82901 -10.3151,-9.8536 0.6517,-0.0128 2.43827,0.45333 3.97016,1.03576 10.88686,4.13917 36.02147,5.35944 50.34991,2.44445 27.25841,-5.54547 53.75278,-22.66854 76.68834,-49.56296 3.18477,-3.73449 5.88346,-6.69701 5.99709,-6.58338 0.27462,0.27462 3.62779,18.53513 7.90876,43.06916 2.83139,16.2265 3.2378,20.15835 2.1889,21.17641 -1.6713,1.62217 -18.14435,11.08819 -22.73924,13.06681 -20.06109,8.63856 -40.05408,12.21993 -57.64489,10.32598 z M 14.58406,706.85433 c -7.21478,-2.58441 -51.92145,-17.98346 -72.86383,-25.09767 -4.80951,-1.63381 -6.60432,-2.77627 -7.34845,-4.67752 -0.60406,-1.54339 -0.78799,-12.37134 -0.47588,-28.01569 0.5618,-28.16034 2.3478,-40.17012 8.7164,-58.61244 6.76257,-19.58323 20.2227,-42.46121 32.80672,-55.76109 9.21924,-9.74369 37.04081,-30.62647 40.80283,-30.62647 0.65755,0 1.34554,-0.35759 1.52888,-0.79464 0.69919,-1.66684 21.36354,-11.23271 34.07612,-15.77441 3.73562,-1.33458 3.73041,-1.32471 -2.7209,5.15844 -3.55503,3.57256 -9.49109,10.57707 -13.19126,15.56557 -5.82301,7.85048 -8.07528,9.96245 -16.751,15.70752 -18.38266,12.173 -36.22322,32.37045 -44.40775,50.27437 -10.40954,22.77119 -15.23218,49.65074 -13.69375,76.32362 0.7105,12.31845 0.78431,12.6223 3.37413,13.89079 1.45626,0.71327 13.26547,4.8216 26.24269,9.12962 l 23.59496,7.83276 2.69671,8.09318 c 1.48319,4.45125 3.78236,10.90568 5.10928,14.34318 1.32691,3.4375 2.09566,6.21303 1.70833,6.16784 -0.38732,-0.0452 -4.52923,-1.45232 -9.20423,-3.12696 z m 202.66005,-7.48968 c -0.9738,-4.73085 -3.27273,-13.14647 -5.10875,-18.70137 -3.123,-9.44871 -3.37418,-11.22803 -3.89617,-27.59983 -0.59443,-18.64362 -1.7892,-25.8251 -6.69998,-40.27191 -9.87929,-29.06346 -32.66675,-55.09234 -66.70782,-76.19676 l -9.25268,-5.73637 -22.08269,16.70408 -22.0827,16.70409 -6.16463,-1.67673 c -3.39055,-0.9222 -10.01598,-2.62882 -14.72319,-3.79248 l -8.55856,-2.11575 13.55856,-10.13247 c 40.39205,-30.18545 61.41776,-45.68631 62.56931,-46.1282 2.44546,-0.93841 29.94956,17.55493 42.67452,28.69369 29.58613,25.89814 46.02601,53.05245 53.90877,89.04297 1.96639,8.97797 2.28072,13.28742 2.29076,31.40584 0.009,15.85998 -0.42766,23.44763 -1.78311,31 -1.62652,9.06271 -5.50414,26.70508 -5.97859,27.20137 -0.10588,0.11075 -0.98925,-3.66932 -1.96305,-8.40017 z"
         id="path3372"
         inkscape:connector-curvature="0" />
    </g>
    <g
       style="fill-rule:evenodd"
       id="g3957"
       transform="matrix(0.01592357,0,0,0.01592357,130.86106,423.4161)">
      <path
         inkscape:connector-curvature="0"
         id="path3071"
         d="m 5438.8148,13685.52 c -69.1153,-165.378 -211.6504,-607.386 -316.746,-982.24 C 3821.1152,8063.0219 6225.6867,3140.038 10696.355,1290.7989 c 868.29,-359.15723 1879.342,-617.22305 2643.712,-674.79382 l 601.371,-45.29368 -301.284,311.44007 C 13058.315,1483.6074 12519.51,2726.5954 11539.873,5727.3705 9948.9056,10600.75 9900.6458,10736.606 9716.9573,10859.074 c -99.2195,66.151 -758.8806,571.931 -1465.9136,1123.956 -1741.5577,1359.744 -2590.4452,2003.176 -2642.8151,2003.176 -24.0614,0 -100.2984,-135.31 -169.4138,-300.686 z"
         style="fill:#000080" />
      <path
         inkscape:connector-curvature="0"
         id="path3073"
         d="m 13139.609,19673.351 c -2075.247,-285.14 -4203.5242,-1358.888 -5684.0721,-2867.702 l -472.1839,-481.202 403.4292,-467.519 c 797.9902,-924.767 1467.6613,-2160.945 2216.3501,-4091.27 l 379.213,-977.715 649.6967,-416.763 c 1602.574,-1028.0086 3050.162,-1453.636 4333.568,-1274.1835 1059.248,148.1114 1837.711,470.4467 3228.646,1336.8725 555.491,346.022 567.972,361.336 790.271,969.715 756.8,2071.186 1614.24,3650.464 2473.743,4556.27 l 313.034,329.899 -643.029,643.029 c -1344.577,1344.578 -2999.797,2232.184 -4898.927,2627.031 -751.326,156.208 -2351.292,215.003 -3089.739,113.538 l 0,0 z"
         style="fill:#000080" />
      <path
         inkscape:connector-curvature="0"
         id="path3075"
         d="m 21839.452,13023.176 c -683.56,-529.196 -1647.833,-1269.323 -2142.829,-1644.724 l -899.993,-682.549 -609.224,-1902.9405 C 16323.102,2969.729 15821.353,1677.9812 15122.12,901.43637 l -298.67,-331.6938 625.424,52.36889 c 2039.633,170.787 4211.004,1235.58534 5768.205,2828.61604 2612.763,2672.8806 3428.853,6517.9627 2135.97,10063.8155 -94.588,259.414 -194.204,471.471 -221.37,471.236 -27.167,-0.256 -608.669,-433.405 -1292.227,-962.603 z"
         style="fill:#000080" />
      <path
         inkscape:connector-curvature="0"
         id="path3087"
         d="M 12693.869,19559.263 C 10836.077,19188.864 8864.9682,18142.408 7576.6738,16842.56 l -505.9289,-510.466 570.945,-751.984 c 639.2792,-841.987 1385.9737,-2260.083 1976.2378,-3753.203 l 393.9983,-996.647 546.718,-353.671 c 763.628,-493.9878 1673.02,-934.2219 2380.507,-1152.397 758.734,-233.9794 1946.888,-255.4587 2726.218,-49.285 624.263,165.1504 2140.68,915.289 2684.904,1328.162 367.042,278.457 419.574,367.747 881.806,1498.839 748.882,1832.54 1186.199,2624.817 2033.109,3683.348 l 445.018,556.217 -596.886,553.321 c -917.581,850.612 -1558.613,1303.439 -2521.276,1781.041 -992.808,492.559 -1972.209,798.743 -2945.224,920.749 -878.72,110.182 -2303.448,92.177 -2952.951,-37.321 l 0,0 z"
         style="fill:#000080" />
    </g>
  </g>
</svg>
